<?xml version="1.0" encoding="utf-8"?>
<!-- Generator: Adobe Illustrator 22.0.1, SVG Export Plug-In . SVG Version: 6.00 Build 0)  -->
<svg version="1.1" id="Layer_1" xmlns="http://www.w3.org/2000/svg" xmlns:xlink="http://www.w3.org/1999/xlink" x="0px" y="0px"
	 viewBox="0 0 595.3 841.9" style="enable-background:new 0 0 595.3 841.9;" xml:space="preserve">
<style type="text/css">
	.st0{fill:#93CBCB;}
	.st1{fill:none;stroke:#707071;stroke-miterlimit:10;}
</style>
<path class="st0" d="M351.1,475.7c12.6-34.5,21.5-74.9,21-119.6c-1.3-119.4-179.6-122.8-185.3-3.6c-1.8,38.4,2.7,79.8,17.6,122.7
	c-9.5,6.3-127.7,88.7-53.3,230c0,0,18.3-127.7,93.8-148.9c9.5,14.4,20.3,28.8,32.7,43.3c0,0,14.9-15.5,32.9-43.1
	c74.9,21.9,93.1,148.7,93.1,148.7C476.5,567,365,485.1,351.1,475.7z"/>
<path class="st1" d="M351.1,475.7c32.3-88.7,40.7-216.5-73.5-355.1c0,0-139.9,162.5-73.2,354.5c-9.5,6.3-127.7,88.7-53.3,230
	c0,0,18.3-127.7,93.8-148.9c9.5,14.4,20.3,28.8,32.7,43.3c0,0,14.9-15.5,32.9-43.1c74.9,21.9,93.1,148.7,93.1,148.7
	C476.5,567,365,485.1,351.1,475.7z"/>
</svg>
